<svg xmlns="http://www.w3.org/2000/svg" width="160" height="160" viewBox="0 0 160 160">
  <rect width="160" height="160" fill="#111111"/>
  <g fill="#ffffff" fill-opacity="0.08">
    <circle cx="10" cy="10" r="2"/><circle cx="30" cy="10" r="2"/><circle cx="50" cy="10" r="2"/><circle cx="70" cy="10" r="2"/><circle cx="90" cy="10" r="2"/><circle cx="110" cy="10" r="2"/><circle cx="130" cy="10" r="2"/><circle cx="150" cy="10" r="2"/>
    <circle cx="20" cy="30" r="2"/><circle cx="40" cy="30" r="2"/><circle cx="60" cy="30" r="2"/><circle cx="80" cy="30" r="2"/><circle cx="100" cy="30" r="2"/><circle cx="120" cy="30" r="2"/><circle cx="140" cy="30" r="2"/>
    <circle cx="10" cy="50" r="2"/><circle cx="30" cy="50" r="2"/><circle cx="50" cy="50" r="2"/><circle cx="70" cy="50" r="2"/><circle cx="90" cy="50" r="2"/><circle cx="110" cy="50" r="2"/><circle cx="130" cy="50" r="2"/><circle cx="150" cy="50" r="2"/>
  </g>
</svg>
